<?xml version="1.0" encoding="UTF-8"?>
<svg version="1.1" viewBox="0 0 2048 703" width="355" height="122" xmlns="http://www.w3.org/2000/svg">
<path transform="translate(0)" d="m0 0h2048v703h-2048z" fill="#FEFEFE"/>
<path transform="translate(128,381)" d="m0 0h297l6 1-3 21-4 20-7 21-8 16-11 20-9 11-12 14-9 9-17 13-14 9-25 12-18 6-21 5-19 2h-20l-26-3-17-4-21-7-25-13-16-12-11-9-18-18-12-16-12-20-7-15-6-18-5-24-2-20z" fill="#FEFEFE"/>
<path transform="translate(99,173)" d="m0 0h6l3 4 12 52 13 53 8 32v2l20-9 16-4 12-2h13l20 3 12 4 5-1 15-9 14-6 16-4 9-1h20l17 3 16 6 14 8 11 9 7 7 9 14 5 11 6 21h48l1 4-4 39-5 21-7 20-16 32-9 13-8 9-8 10-8 8-14 11-15 11-21 12-20 8-25 8-31 4h-26l-26-3-22-6-20-7-27-14-13-10-16-13-10-9-14-17-8-11-10-18-7-12-11-33-3-15-3-31v-11h60l-13-30-15-33-16-33-10-23-4-9 1-4 6-3 7-1 4 8 9 21 19 40 15 32 8 16v2h2l2-5 7-10 4-5-1-9-24-98-8-37-1-10zm29 208-72 1 2 20 5 24 7 20 8 17 12 19 13 16 18 18 17 13 11 7 21 11 24 8 20 4 20 2h20l25-3 24-7 16-6 20-10 12-8 13-10 12-11 11-12 11-14 16-29 8-21 5-21 4-24v-3l-6-1z" fill="#040404"/>
<path transform="translate(1651,305)" d="m0 0h17l21 5 14 7 9 8 7 11 4 13 1 15-2 17-4 11-7 10-8 7-14 7-17 4h-24l-16-4-9-4-9-6-7-7-8-16-3-17 1-14 4-15 6-10 9-9 10-6 15-5z" fill="#040404"/>
<path transform="translate(956,305)" d="m0 0h55l20 4 13 5 9 6 7 8 5 11 3 13v20l-3 14-4 10-9 10-6 5-10 5-11 3-23 2h-47v-114z" fill="#040404"/>
<path transform="translate(492,305)" d="m0 0h55l18 3 12 4 10 6 8 8 6 12 3 12v26l-3 13-5 9-8 9-9 6-15 5-10 2-14 1h-48z" fill="#040404"/>
<path transform="translate(627,305)" d="m0 0h76l12 3 10 5 7 6 6 10 1 3v14l-4 9-7 8-10 6 1 5 12 23 10 19 1 4-2 1h-36l-4-4-11-22-8-18-1-1h-14l-1 30-1 14-2 1h-35z" fill="#040404"/>
<path transform="translate(1092,305)" d="m0 0h100v14l-1 15-6 1-57 1v7l1 1 55 1v29l-29 1h-27v15l65 1 1 1-1 28-1 1h-101v-115z" fill="#040404"/>
<path transform="translate(1764,304)" d="m0 0h17l1 1 1 67 2 9 4 6 8 3h14l7-2 6-7 1-3 1-73 36-1 1 1v72l-2 12-4 9-7 8-10 7-10 4-13 3h-25l-15-4-10-4-9-7-7-9-4-11-1-5-1-19v-25l1-31z" fill="#040404"/>
<path transform="translate(1929,305)" d="m0 0h18l20 4 12 6 7 7 5 10 1 7-2 1h-29l-5-3-3-5-7-2h-15l-6 3-1 5 7 4 40 10 12 6 6 5 4 8 1 4v14l-3 10-7 9-11 7-14 4-5 1h-26l-17-4-14-7-6-7-4-8-2-8v-8h24l9 1 5 8v2l6 1h18l8-1 2-3-1-4-4-3-22-5-16-4-10-4-9-6-5-6-3-11 1-13 4-8 9-8 11-5 11-3z" fill="#040404"/>
<path transform="translate(1443,305)" d="m0 0h18l17 4 14 7 9 8 8 16 2 8-1 5h-34l-4-11-6-5-8-2h-10l-9 3-6 7-2 6-1 16 2 11 6 9 6 3h19l7-3 4-5 3-8h33l1 4-4 15-7 11-11 8-12 5-13 3-12 1-19-3-15-6-10-7-7-8-6-13-2-10v-23l3-12 6-12 5-6 10-7 14-6z" fill="#040404"/>
<path transform="translate(777,304)" d="m0 0h12l4 2 13 18 10 14 4-1 7-11 11-15 3-6 10-1h30l-2 6-14 20-23 34-7 10-1 46-2 1h-34l-1-47-6-10-22-32-14-19-4-6v-2z" fill="#040404"/>
<path transform="translate(1215,305)" d="m0 0h36l1 2v83l61 1v29l-2 1h-96z" fill="#040404"/>
<path transform="translate(303,302)" d="m0 0 12 1 17 4 16 8 9 7 7 6 9 13 7 15 1 10h-92l-7-15-9-14-12-13-8-6 3-3 14-7 22-5z" fill="#FEFEFE"/>
<path transform="translate(194,317)" d="m0 0 16 1 17 4 16 8 10 9 6 5 9 13 4 9h-151l1-4 7-11 11-12 9-8 10-6 14-5z" fill="#FDFDFD"/>
<path transform="translate(0)" d="m0 0h6l1 186 1 97v171l-2 249h-6z" fill="#E6E6E6"/>
<path transform="translate(1536,305)" d="m0 0h35l1 2v109l-2 5h-35v-103z" fill="#040404"/>
<path transform="translate(1334,305)" d="m0 0h36v114l-1 2h-35l-1-1v-96z" fill="#040404"/>
<path transform="translate(698,445)" d="m0 0h24l9 2 9 6 4 6 2 8v12l-4 11-5 7-10 6-5 2 2 9 11 31 1 5-8 1-4-3-11-33-3-6-19-1-2 13-7 29-1 1-9-1 2-11 18-88 2-5z" fill="#040404"/>
<path transform="translate(1026,445)" d="m0 0h29l10 3 7 5 4 8 1 4v18l-5 10-8 7-11 6 10 29 4 11v4l-7 1-5-5-11-33-2-4h-18l-2 5-6 27-3 8-1 1h-8l1-8 20-96z" fill="#040404"/>
<path transform="translate(489,445)" d="m0 0h27l9 2 8 5 5 10 1 5v12l-4 11-6 8-10 6-14 4-13 1h-8l-5 27-4 13-2 2h-6l-1-1 1-9 10-49 9-43 1-3z" fill="#040404"/>
<path transform="translate(1234,444)" d="m0 0 7 1 4 6 15 42 12 34 3 5 6-28 10-48 3-11h8l1 5-15 73-6 25-2 3h-7l-4-4-13-36-11-30-7-18h-1l-9 46-8 36-2 6h-7l-1-1 1-9 12-60 7-31z" fill="#040404"/>
<path transform="translate(1450,444)" d="m0 0 3 1v7l-7 36v3l47 1 4-23 5-23 5-2 4 1 1 3-11 55-10 45-2 3h-7l-1-5 9-43h-48l-5 26-5 21-1 1-9-1 2-11 10-49 9-41 2-4z" fill="#040404"/>
<path transform="translate(1655,334)" d="m0 0h10l9 2 6 4 5 7 2 8v16l-3 9-7 8-9 3h-18l-8-4-5-6-3-9v-19l3-9 8-7 4-2z" fill="#FEFEFE"/>
<path transform="translate(1183,444)" d="m0 0 6 1v7l-12 58-5 17-6 10-8 7-8 4-7 2h-15l-11-4-8-7-4-8-1-11 3-19 11-52 2-4h9l-1 10-11 51-1 8v12l3 7 4 4 15 2 11-2 8-5 4-7 4-12 12-57 3-11z" fill="#040404"/>
<path transform="translate(581,445)" d="m0 0h9v7l-10 47-3 20 1 10 4 6 6 3 6 1h8l13-4 6-7 5-13 9-42 6-27 9-1 1 5-10 49-5 21-5 12-6 8-9 6-11 4h-15l-10-3-6-4-5-6-3-9v-12l6-32z" fill="#040404"/>
<path transform="translate(789,445)" d="m0 0h48l1 1v8l-1 2-40 1-2 8-4 24-1 3h37l-1 10-1 1h-37l-6 29-1 8 19-1h19l-1 9-1 2h-49l1-10 19-92z" fill="#040404"/>
<path transform="translate(529,334)" d="m0 0 24 1 7 3 6 8 1 4v26l-4 8-5 5-9 2h-20l-1-1v-55z" fill="#FDFDFD"/>
<path transform="translate(992,334)" d="m0 0 25 1 8 4 4 7 1 3v28l-3 7-6 5-9 2h-20z" fill="#FEFEFE"/>
<path transform="translate(962,445)" d="m0 0 15 1 8 3 2 2v6l-1 2-7-1-4-1h-18l-10 3-9 6-8 11-5 12-3 13v15l4 11 7 8 10 3h12l14-3 1 1v6l-3 4-11 3h-18l-10-4-6-4-6-7-5-11-1-4v-18l4-17 8-16 6-8 8-7 12-6 6-2z" fill="#040404"/>
<path transform="translate(1378,445)" d="m0 0h11l12 3 5 4-1 5-4 2-8-2h-19l-11 4-8 7-4 5-6 11-3 9-1 5v21l3 9 7 8 5 2 6 1h10l17-3v6l-5 5-10 3h-17l-11-4-8-6-7-11-3-14 1-17 4-15 7-14 9-10 7-6 10-5z" fill="#040404"/>
<path transform="translate(1033,456)" d="m0 0h24l7 4 3 7v14l-3 6-8 7-8 3-13 1h-10l2-12 5-29z" fill="#FDFDFD"/>
<path transform="translate(495,456)" d="m0 0h23l6 3 3 3 2 8-1 11-5 9-10 6-12 2h-12l-2-1 1-10 5-25z" fill="#FDFDFD"/>
<path transform="translate(702,456)" d="m0 0h22l8 4 3 5 1 9-2 10-5 7-6 4-6 2h-23l2-15 5-25z" fill="#FEFEFE"/>
<path transform="translate(665,335)" d="m0 0h34l2 2v12l-2 1h-35v-12z" fill="#FDFDFD"/>
<path transform="translate(128,381)" d="m0 0h297v1l-117 1-20 1h-48l-11-1-101-1z" fill="#E6E6E6"/>
<path transform="translate(0)" d="m0 0h3l1 2v9l-4 1z" fill="#fff"/>
</svg>
